<svg width="375" height="406" viewBox="0 0 375 406" fill="none" xmlns="http://www.w3.org/2000/svg">
<g clip-path="url(#clip0_698_3702)">
<path d="M375 254.901C375 254.901 302.933 417.894 191.1 423.5C79.2667 429.105 0 368.512 0 368.512V-19H375V254.901Z" fill="url(#paint0_linear_698_3702)"/>
<path d="M141.3 334.412C121.1 385.229 126.867 419.562 126.867 419.562C146.033 423.066 165.5 424.5 184.967 423.867C209.633 423.066 232.433 415.392 253.1 403.747C253.8 375.519 244.167 350.328 237.3 336.014C193.133 357.402 154.6 341.419 141.3 334.412Z" fill="#AB8DA8"/>
<path d="M147.233 320.732C145.067 325.404 143.067 329.975 141.333 334.412C154.6 341.419 193.167 357.435 237.3 336.014C233.533 328.173 230.567 323.602 230.567 323.602C230.567 323.602 174.4 262.475 147.233 320.732Z" fill="#FEF9EF"/>
<path d="M191.1 423.499V405.916L206.367 395.305L196.267 409.419L197.3 422.999L191.1 423.499Z" fill="#543753"/>
<path d="M118.533 210.625C118.533 210.625 117 211.192 116.733 226.74C116.467 242.289 115.3 273.219 115.3 273.219C115.3 273.219 101.2 260.106 100.167 253.5C99.1332 246.893 99.5666 240.954 98.8666 237.317C98.1666 233.681 98.0332 223.737 98.3332 221.869C98.6332 220.001 93.8999 219.7 92.5999 222.47C91.2999 225.239 90.8666 234.448 90.1999 234.782C89.5332 235.115 81.8999 235.816 81.1665 237.484C80.4332 239.153 81.7332 242.189 80.5999 244.725C79.4665 247.26 80.6999 249.062 80.5999 250.997C80.4999 252.933 80.0332 253.667 80.8999 256.603C81.7665 259.539 81.9332 262.008 83.3332 262.475L84.7332 262.942L89.6332 264.611C89.6332 264.611 110.633 311.957 121.033 312.991C131.433 314.026 136.867 305.751 138.167 299.078C139.467 292.405 146.433 252.432 146.433 252.432L118.533 210.625Z" fill="#FFEDE5"/>
<path d="M130.333 243.523L141.867 278.591L146.433 252.399L130.333 243.523Z" fill="#E0855C"/>
<path d="M115.3 273.186C115.3 273.186 125.1 281.427 128.333 288.2C128.333 288.2 123.1 274.32 115.5 267.881L115.3 273.186Z" fill="#E0855C"/>
<path d="M86.3665 262.275C86.3665 262.275 96.5998 262.008 97.4331 261.374C98.2664 260.74 98.2998 257.737 97.8664 257.37C97.8664 257.37 98.6998 252.999 97.9331 251.865C97.9331 251.865 98.2331 248.628 97.8998 246.727C97.8998 246.727 99.5998 256.469 99.3998 258.004C99.1998 259.539 99.9998 262.142 95.3998 262.909C90.7998 263.677 86.3665 262.275 86.3665 262.275Z" fill="#E0855C"/>
<path d="M97.9332 251.932C97.8999 251.932 97.8999 251.932 97.8666 251.932C97.6999 251.898 97.5666 251.731 97.5999 251.565C98.0332 248.862 97.3332 243.624 97.3332 243.59V243.523V243.457C97.6332 242.289 98.2666 238.986 97.3999 237.985C96.6333 237.084 89.2332 236.85 84.7332 236.917C84.5666 236.917 84.3999 236.784 84.3999 236.583C84.3999 236.383 84.5332 236.25 84.7332 236.25C86.7332 236.216 96.6999 236.15 97.8999 237.551C99.0999 238.952 98.1666 242.856 97.9999 243.557C98.0666 244.191 98.6666 248.995 98.2333 251.665C98.2333 251.832 98.0666 251.932 97.9332 251.932Z" fill="#472938"/>
<path d="M97.6665 243.857C97.6332 243.857 97.6665 243.857 97.6665 243.857L86.9332 243.357C86.7332 243.357 86.5999 243.19 86.5999 243.023C86.5999 242.823 86.7332 242.689 86.9332 242.689L97.6665 243.19C97.8665 243.19 97.9999 243.357 97.9999 243.523C97.9999 243.724 97.8332 243.857 97.6665 243.857Z" fill="#472938"/>
<path d="M97.8334 257.704H87.2667C87.0667 257.704 86.9333 257.571 86.9333 257.37C86.9333 257.17 87.0667 257.037 87.2667 257.037H97.8334C98.0334 257.037 98.1667 257.17 98.1667 257.37C98.1667 257.571 98.0334 257.704 97.8334 257.704Z" fill="#472938"/>
<path d="M98.0331 250.43H85.8997C85.6997 250.43 85.5664 250.297 85.5664 250.097C85.5664 249.896 85.6997 249.763 85.8997 249.763H98.0331C98.2331 249.763 98.3664 249.896 98.3664 250.097C98.3664 250.297 98.2331 250.43 98.0331 250.43Z" fill="#472938"/>
<path d="M278.967 194.375L299.167 193.608C300.033 193.575 300.767 194.242 300.8 195.109L302.367 236.817C302.4 237.684 301.733 238.418 300.867 238.452L280.667 239.219C279.8 239.253 279.067 238.585 279.033 237.718L277.467 196.01C277.433 195.109 278.1 194.409 278.967 194.375Z" fill="#3B2645"/>
<path d="M280.6 237.851C280.467 237.851 280.367 237.751 280.367 237.618L278.8 195.91C278.8 195.843 278.834 195.777 278.867 195.743C278.9 195.71 278.967 195.677 279.034 195.677L299.234 194.909C299.367 194.909 299.467 195.009 299.467 195.143L301.034 236.85C301.034 236.984 300.934 237.084 300.8 237.084L280.6 237.851Z" fill="#FEF9EF"/>
<path d="M216.333 189.204C216.333 189.204 237.533 191.339 241.467 208.556C245.4 225.773 252.667 266.679 252.667 266.679C252.667 266.679 268.133 241.889 269.367 237.951C270.6 234.014 274.6 220.701 274.467 216.163C274.333 211.626 278.767 214.862 278.767 220.267L279.433 238.152C279.467 238.752 279.967 239.219 280.567 239.186H280.6L301.067 237.651C301.767 237.618 302.267 237.017 302.233 236.316V236.083C302.233 236.083 300.767 233.047 301.2 231.645C301.633 230.244 305.133 230.11 305.533 230.444C305.933 230.778 308.1 234.948 308.033 236.083C307.967 237.217 305.433 240.754 303.767 241.288C302.1 241.822 285.5 245.826 282.1 250.964C278.7 256.102 263.833 301.113 251.767 304.583C239.7 308.053 227.933 275.321 225.167 265.745C222.4 256.169 216.333 189.204 216.333 189.204Z" fill="#FFEDE5"/>
<path d="M221.667 242.289C222.967 253.333 224.267 262.609 225.167 265.712C226.467 270.183 229.733 279.759 234.1 288.301L235.433 225.406L221.667 242.289Z" fill="#E0855C"/>
<path d="M301.667 218.566C301.667 218.566 308.9 222.269 308.767 223.838C308.634 225.406 307.267 228.208 305.867 228.075C304.467 227.942 301.834 226.54 301.1 224.905C300.367 223.27 300 218.032 301.667 218.566Z" fill="#FFEDE5"/>
<path d="M302.033 224.004C302.033 224.004 309.267 227.708 309.133 229.276C309 230.844 307.633 233.647 306.233 233.514C304.833 233.38 302.2 231.979 301.467 230.344C300.733 228.709 300.367 223.471 302.033 224.004Z" fill="#FFEDE5"/>
<path d="M302.033 211.959C302.033 211.959 309.267 215.663 309.133 217.231C309 218.799 307.633 221.602 306.233 221.469C304.833 221.335 302.2 219.934 301.467 218.299C300.733 216.664 300.367 211.392 302.033 211.959Z" fill="#FFEDE5"/>
<path d="M246.133 279.926C246.067 279.926 246.033 279.926 245.967 279.892C245.8 279.826 245.733 279.592 245.833 279.459L252.367 266.546C252.433 266.379 252.667 266.312 252.8 266.413C252.967 266.479 253.033 266.713 252.933 266.846L246.4 279.759C246.367 279.859 246.267 279.926 246.133 279.926Z" fill="#472938"/>
<path d="M152.5 298.244C152.533 309.088 147.233 320.699 147.233 320.699C147.233 320.699 183.933 341.319 230.533 323.568C230.533 323.568 224.833 308.887 225.566 293.539C187.9 286.532 152.5 298.244 152.5 298.244Z" fill="#FFEDE5"/>
<path d="M118.533 210.625C115.8 214.729 126.333 235.149 136.4 255.802C145.567 235.282 140.2 210.358 137.1 199.647C130 202.383 121.3 206.421 118.533 210.625Z" fill="#FFEDE5"/>
<path d="M225.567 293.572C225.633 291.971 225.8 290.369 226.033 288.768C226.167 287.8 226.333 286.766 226.5 285.665C196.6 277.49 161 286.833 150.967 289.802C151.933 293.105 152.5 295.975 152.5 298.244C152.5 298.244 187.9 286.532 225.567 293.572Z" fill="#FEF9EF"/>
<path d="M136.4 256.903C136.267 256.903 136.167 256.837 136.1 256.703L128.667 240.687C128.6 240.521 128.667 240.32 128.833 240.254C129 240.187 129.2 240.254 129.267 240.42L136.7 256.436C136.767 256.603 136.7 256.803 136.533 256.87C136.5 256.903 136.433 256.903 136.4 256.903Z" fill="#472938"/>
<path d="M193.4 327.606C193.915 327.606 194.333 327.187 194.333 326.671C194.333 326.156 193.915 325.737 193.4 325.737C192.884 325.737 192.467 326.156 192.467 326.671C192.467 327.187 192.884 327.606 193.4 327.606Z" fill="#E0855C"/>
<path d="M233.833 227.374C233.833 227.141 233.833 226.907 233.833 226.707C233.833 226.607 233.833 226.473 233.833 226.373C233.833 226.106 233.833 225.873 233.8 225.606C233.8 225.539 233.8 225.472 233.8 225.372C233.8 225.039 233.766 224.738 233.766 224.438V224.238C233.766 224.004 233.733 223.737 233.733 223.504C233.733 223.404 233.733 223.304 233.7 223.204C233.7 223.003 233.666 222.803 233.666 222.636L233.633 222.303C233.633 222.136 233.6 221.936 233.566 221.769C233.566 221.669 233.533 221.569 233.533 221.435C233.5 221.235 233.5 221.068 233.467 220.868C233.467 220.768 233.433 220.701 233.433 220.601C233.4 220.334 233.367 220.067 233.3 219.8C230.7 203.985 216.3 189.17 216.3 189.17C216.3 189.17 221.9 211.425 223.7 214.028C230.266 223.571 233.933 229.31 233.467 236.917C233.5 236.517 233.533 236.15 233.566 235.749C233.566 235.649 233.566 235.549 233.566 235.449C233.6 235.149 233.6 234.848 233.633 234.581C233.633 234.481 233.633 234.348 233.666 234.248C233.666 233.981 233.7 233.714 233.7 233.414L233.733 233.08C233.733 232.78 233.766 232.513 233.766 232.246C233.766 232.146 233.766 232.079 233.766 231.979C233.8 231.245 233.833 230.511 233.833 229.777C233.833 229.677 233.833 229.61 233.833 229.51C233.833 229.243 233.833 228.976 233.833 228.709V228.375C233.833 228.142 233.833 227.908 233.833 227.675V227.374Z" fill="#FFEDE5"/>
<path d="M223.7 214.061C221.9 211.459 216.333 189.204 216.333 189.204H212.1L147.233 196.144C147.233 196.144 142.667 197.478 137.1 199.614C140.167 210.324 145.567 235.282 136.4 255.769C142.433 268.181 148.267 280.66 150.933 289.802C160.967 286.799 196.567 277.49 226.467 285.665C228.433 273.052 232.233 252.966 233.467 236.95C233.933 229.343 230.267 223.604 223.7 214.061Z" fill="#AB8DA8"/>
<path d="M158.1 272.185C156.5 272.185 154.833 271.985 153.067 271.551C152.9 271.517 152.767 271.317 152.833 271.15C152.867 270.984 153.067 270.85 153.233 270.917C159.567 272.518 164.7 270.683 170.1 268.781C175.233 266.946 180.533 265.078 187.333 265.845C201.067 267.38 223.433 263.677 223.667 263.643C223.867 263.61 224.033 263.743 224.067 263.91C224.1 264.077 223.967 264.277 223.8 264.31C223.567 264.344 201.1 268.081 187.3 266.546C180.667 265.812 175.433 267.647 170.367 269.449C166.3 270.817 162.433 272.185 158.1 272.185Z" fill="#472938"/>
<path d="M209.367 100.25C209.367 100.25 226.767 101.985 221.533 125.141C216.3 148.297 221.467 147.263 226 159.508C230.533 171.753 206.833 163.645 206.833 163.645C206.833 163.645 218.9 181.73 154.767 173.922C101.867 167.482 137.167 139.889 137.167 139.889C137.167 139.889 121.267 141.991 140.3 125.174C153.7 113.329 160.833 69.7868 209.367 100.25Z" fill="#3B2645"/>
<path d="M197.833 164.313C197.833 164.313 192.467 183.164 199.833 186.668C205.5 189.371 212.1 189.204 212.1 189.204C212.1 189.204 209.833 239.186 181.833 239.72C153.833 240.254 147.233 196.144 147.233 196.144C147.233 196.144 158.633 192.14 162.033 184.299C165.433 176.458 165.6 165.48 165.6 165.48L197.833 164.313Z" fill="#FFEDE5"/>
<path d="M211.285 150.06C214.138 145.113 214.073 139.729 211.14 138.033C208.206 136.338 203.515 138.974 200.662 143.921C197.808 148.868 197.873 154.253 200.807 155.948C203.74 157.643 208.431 155.007 211.285 150.06Z" fill="#E0855C"/>
<path d="M204.3 150.432C204.2 150.432 204.133 150.399 204.067 150.332C203.933 150.199 203.933 149.999 204.067 149.865L209.1 145.127C209.233 144.994 209.433 144.994 209.567 145.127C209.7 145.261 209.7 145.461 209.567 145.594L204.533 150.332C204.467 150.432 204.4 150.432 204.3 150.432Z" fill="#472938"/>
<path d="M158.838 152.188C162.134 151.408 163.741 146.269 162.427 140.71C161.114 135.151 157.377 131.277 154.08 132.058C150.784 132.838 149.177 137.978 150.491 143.536C151.805 149.095 155.542 152.969 158.838 152.188Z" fill="#FFEDE5"/>
<path d="M196.167 180.395C195.167 173.655 197.833 164.279 197.833 164.279L165.567 165.48C165.567 165.48 165.533 167.916 165.133 171.32C165.133 171.353 181.233 190.872 196.167 180.395Z" fill="#E0855C"/>
<path d="M157.967 145.361C157.867 145.361 157.767 145.294 157.7 145.194L154.5 140.289C154.4 140.122 154.433 139.922 154.6 139.822C154.767 139.722 154.967 139.755 155.067 139.922L158.267 144.827C158.367 144.994 158.333 145.194 158.167 145.294C158.1 145.361 158.033 145.361 157.967 145.361Z" fill="#472938"/>
<path d="M160.1 110.16C160.1 110.16 148.633 172.12 175.567 178.56C202.5 185 212.1 127.21 211.4 115.198C210.7 103.186 164.1 99.5493 160.1 110.16Z" fill="#FFEDE5"/>
<path d="M195.934 138.487C196.8 138.654 197.367 139.488 197.234 140.356L197.067 141.323C196.9 142.191 196.067 142.758 195.2 142.625C194.334 142.458 193.767 141.624 193.9 140.756L194.067 139.789C194.234 138.921 195.067 138.321 195.934 138.487Z" fill="#472938"/>
<path d="M170.833 135.685C171.733 135.685 172.433 136.385 172.433 137.286V138.254C172.433 139.121 171.733 139.855 170.833 139.855C169.967 139.855 169.233 139.155 169.233 138.254V137.286C169.233 136.385 169.933 135.685 170.833 135.685Z" fill="#472938"/>
<path d="M201.8 136.819C201.8 136.819 200.6 135.017 197.133 134.417C193.667 133.816 192.567 134.016 192.533 132.915C192.5 131.814 200.267 130.113 201.8 136.819Z" fill="#472938"/>
<path d="M165.8 132.248C165.8 132.248 167.533 130.947 171 131.514C174.467 132.114 175.433 132.648 175.833 131.614C176.233 130.58 169.467 126.409 165.8 132.248Z" fill="#472938"/>
<path d="M172.4 155.871L186.8 157.506C186.8 157.506 184.567 167.249 178.2 166.114C171.867 165.013 172.4 155.871 172.4 155.871Z" fill="white"/>
<path d="M181.933 153.469C180.933 153.469 179.833 153.202 178.833 152.735C178.667 152.668 178.6 152.468 178.667 152.301C178.733 152.134 178.933 152.067 179.1 152.134C180.567 152.835 182.2 153.002 183.3 152.568C183.767 152.401 184.067 152.134 184.2 151.834C184.633 150.799 184.467 147.596 184.267 143.893L184.2 142.591C183.833 135.751 187.933 134.45 188.1 134.383C188.267 134.317 188.467 134.417 188.5 134.617C188.567 134.784 188.467 134.984 188.267 135.017C188.1 135.051 184.5 136.252 184.833 142.558L184.9 143.859C185.1 147.796 185.3 150.933 184.767 152.101C184.567 152.568 184.133 152.968 183.5 153.202C183.1 153.402 182.533 153.469 181.933 153.469Z" fill="#472938"/>
<path d="M206.833 144.627C206.833 144.627 209 127.91 201.8 118.768C201.8 118.768 195.7 130.313 185.7 126.309C185.7 126.309 171.967 138.22 157.967 134.75C143.967 131.28 148.933 98.515 169.233 97.1136C189.533 95.7122 230.833 103.887 206.833 144.627Z" fill="#3B2645"/>
</g>
<defs>
<linearGradient id="paint0_linear_698_3702" x1="375" y1="423.866" x2="-125.641" y2="391.062" gradientUnits="userSpaceOnUse">
<stop stop-color="#92A3FD"/>
<stop offset="1" stop-color="#9DCEFF"/>
</linearGradient>
<clipPath id="clip0_698_3702">
<rect width="375" height="406" fill="white"/>
</clipPath>
</defs>
</svg>